<?xml version="1.0" encoding="utf-8"?>
<!-- Generator: Adobe Illustrator 22.1.0, SVG Export Plug-In . SVG Version: 6.00 Build 0)  -->
<svg version="1.1" id="Layer_1" xmlns="http://www.w3.org/2000/svg" xmlns:xlink="http://www.w3.org/1999/xlink" x="0px" y="0px"
	 viewBox="0 0 295.7 295.7" style="enable-background:new 0 0 295.7 295.7;" xml:space="preserve">
<style type="text/css">
	.st0{fill:#638A3E;}
	.st1{fill:#89A865;}
	.st2{fill:#678D42;}
	.st3{fill:#739550;}
	.st4{fill:#7E9D5A;}
	.st5{fill:#6B9144;}
	.st6{fill:#7C9D58;}
	.st7{fill:#779A54;}
	.st8{fill:#A3BA80;}
	.st9{fill:#84A261;}
	.st10{fill:#70934B;}
	.st11{fill:#92AD6E;}
	.st12{fill:#587F3C;}
	.st13{fill:#99AF75;}
	.st14{fill:#96A176;}
	.st15{fill:#87A563;}
	.st16{fill:#E6ECDA;}
</style>
<title>fern</title>
<g id="Layer_2_1_">
	<g id="Layer_1-2">
		<g id="npelVt.tif">
			<path class="st0" d="M147.1,112.6l-0.8-1.9l4.3,0.6c0.7-3.1-0.6-4.8-2.9-6.3c-2.1-1.3-4.4-3-0.8-5.4c2.4,1.3,5.9-0.6,8.1-4.3
				l2-1.6c2.4-0.4,3.1,0.9,2.9,3l0,0l-2,3c-0.3,1.3-0.6,2.7-1,4c-0.1,0-0.2,0.1-0.4,0.2c-0.1,0,0,0.2-0.1,0.3l0.4-0.4l2,4l-1,1
				l-1.8,1l2,1.9v1.8c0.9,2.2,7.3,6.7,9.3,6.4c7.2-0.8,14.4-1.5,21.6-2.3l3.9,2l-3,2c-1.8,0.1-3.6,0.4-5.3,0.8
				c-2.1,0.8-4.1,2.9-6.1,3c-6.4,0.2-12.9-0.4-19.4-0.6c-0.4,0-0.8,1.1-1.1,1.7l-3.1,2.1l-3.9-3c0.9-2.2,1.9-4.4,2.6-6.2l-5.4-5.8
				c-0.2-0.1-0.3-0.4-0.2-0.6l0,0C147.6,112.8,147.4,112.7,147.1,112.6z"/>
			<path class="st1" d="M216.9,30.5l-1.1,0.9l-2.8-0.5l-2.1,0.4l-4.1,1.3l-0.9,1.1l0,0l-1.1-0.1c0-1,0-2,0.1-3l-3-1l-1.1-2.8
				c0.5-0.5,1.3-0.9,1.3-1.4c0.1-2.2-0.1-4.4-0.2-6.6h0.1l2-0.3h-0.1l1.7,1.2l1.2,2.1c-0.1,0.9-0.1,1.7-0.2,2.6
				c0.8-0.2,1.6-0.6,2.3-1c0.5-0.4,0.6-1.1,1-1.7c5.8-0.5,5.9-0.6,5.2-5.8c0-0.4,0-0.9,0.2-1.3c3.5,0.3,2.1-3.4,3.7-4.6l0.4-0.1
				L220,9c0.2-0.4,0.2-1.1,0.5-1.3c3.1-2,6.3-4,9.4-5.9c1.3-0.8,2.7-1.3,4.2-1.5c-1,4.5-2.4,8.7-6.2,11.7c-0.8,0.7-2.1,2.1-1.8,2.7
				c1.1,3-1.1,4.5-1.9,6.8c-1.1,3.1-3.2,4.3-5.4,5.8v2.6l-0.1,0.1L216.9,30.5z"/>
			<path class="st2" d="M209.9,94.6c-2.7,1.5-5.5,2.8-8.4,4c-2.1,0.7-4.5,0.5-7.2,0.8c0.4,3.1-1.4,3.7-4.4,2.3s-5.5,1.3-7.4,2.3
				c-3.8,2.3-8.2,3.2-12.6,2.4l3.6-8.4L160,98.6v-2l0,0l4.9-5c0.6,0.2,1.7,0.7,1.8,0.4c2.4-2.7,3.1-0.4,3.6,0.4
				c2.4-0.2,5.8,0.2,6-0.6c1.3-4,3.7-1.6,5.7-1.3l1,7.1c1.6,0,3.3-0.2,4.9-0.6c6.1-2.1,12.1-4.3,18.1-6.5c1.9-0.7,4.1-2.6,5.1,1l0,0
				C210.6,92.7,210.4,93.6,209.9,94.6z M180.6,93.9c-0.1-0.3-0.1-0.7-0.3-0.8c-0.2-0.1-0.5,0.1-0.8,0.2l0.4,1L180.6,93.9z"/>
			<path class="st2" d="M162.9,216.6c-4.2,1-8.4,2.3-12.7,2.9c-4.6,0.7-9.4,1.4-14,0.9c-6.1-0.7-12.2,1.4-18.2-0.6
				c-3.6-1.2-4.7,0.3-4.1,4.9l-5,1v-3l3-6l2-4.9l10.9,1.9c6.3,1.9,12.6,2.7,18.9-0.2h-11.7c5-1,10.3-3.1,14.6-1.8
				c4.6,1.4,8.9,1.1,13.3,1C163.1,212.5,163.1,214.4,162.9,216.6z"/>
			<path class="st3" d="M162.9,216.6c0.1-2.1,0.2-4-2.9-3.9c-4.4,0.1-8.7,0.4-13.3-1c-4.3-1.3-9.7,0.8-14.6,1.8h11.8
				c-6.4,2.8-12.7,2-18.9,0.2c0.6-0.9,1.2-1.7,1.9-2.5c0.6-0.6,1.3-1.1,2.1-1.6c-0.8-0.3-1.6-0.7-2.3-1.2c-0.5-0.5-0.5-1.4-0.7-2.2
				c4.6,0.3,9.2,0.7,13.8,0.9c0.5,0,1.1-0.3,1.6-0.4c1.5-0.2,2.9-0.1,4.4,0.3c2.1-2,4-2.7,7.4-1.1c2.1,1,5.2,0,7.9-0.1l4.3-0.1
				l0.7-0.8l1.1-1.2c1.3,1.6,5.4,4.2,8.1,5.2c0.3,0.1,0.5,0.5,0.7,0.7c-2.6,1.7-5.2,3.5-7.9,5C166.4,215.3,164.6,216,162.9,216.6z"
				/>
			<path class="st4" d="M201.6,56.2c3.6,0.6,7.4,0.9,10.9,2c1.4,0.5,2.1,2.9,3.2,4.4c-1,0.4-2.1,0.8-3.2,1.1
				c-0.8,0.2-1.7-0.2-2.4,0.2c-7.4,4-15.4,2.7-23.2,3l-2.1,0.8l-2,0.5l-2.4-1.1l-0.4,2.8l0,0l-2-0.2c0.4-3.1-1.6-1.9-3.1-1.8
				l0.1-1.8c2.3-2.1,3.4-5.1,3.1-8.2l2.4-0.7l-1.4-1.3l1.9-3l3.5,6l4.5-3C193.2,56.1,197.4,59.4,201.6,56.2z"/>
			<path class="st5" d="M123.9,183.8l-0.9-2.2l-1.1-3c-0.7-1.6-3.4-2.4-2-4.9l3.5,0.8c1.8,0.4,4.4,1.8,4.8-1.1
				c0.3-2.1-0.2-5.4-3.5-5.5c-6.1-0.2-12.1-0.8-17.8-3.1c-1.7-0.7-3.6-1.1-5-2.2c-1.8-1.5-3.4-3.1-4.9-4.9c0.7-1,1.3-2,2-3l4,2
				c0.6,1.3,1.3,2.5,2.1,3.6c0.6,0.8,1.4,1.5,2.3,1.8c1.4,0.3,2.8,0.4,4.2,0.3c1.3,0,3.6,0,3.7-0.3c0.3-1.9,1.9-3.3,3.8-3.4l11.9,4
				l1.1,3c-0.3,1.8-0.6,3.6-0.7,5.4c0,2.2,0.4,4.4,0.6,6.6c0.1,3.1,4.2,4,4.7,3.6c3.9-2.9,3.5,0.8,4.4,2.5c-0.1,0.6,0,1.7-0.3,1.9
				c-3.2,1.5-8.6-0.4-9.5-3.8c-0.7-2.4-1.7-1.9-3.1-1.1L123.9,183.8z"/>
			<path class="st6" d="M166.9,133c5-0.3,9.8-1.3,15,0c2.8,0.7,5.8,0.2,8.2-1.4c2.1-1.5,5.8-0.8,8.8-1.1c0.9-0.2,1.8-0.2,2.7,0
				c1.2,0.7,2.3,1.6,3.4,2.5l-1.9,1.8c-4.1,0.7-8.3,1.4-12.4,2.2c-2,0.6-3.9,1.3-5.7,2.2l4,3.3l-9.9,2.9c1.2-4.6,0.4-5.4-4.3-4.5
				c-3.2,0.6-6.4,1.2-9.6,1.7c-0.3-1.4-0.7-2.9-0.9-4.3C163.6,135.8,164.1,133.7,166.9,133z"/>
			<path class="st6" d="M169.9,157.7c2.3-2,4.9-2,7.8-2.3c5.9-0.5,11.8-2,17.7-2.9c1,0,1.9,0.2,2.9,0.4c-0.3,1-0.3,2.4-1,3
				c-3.6,3-7.2,5.9-11,8.8c-1.7,1.3-4-0.8-6,1.7c-1.5,1.8-5.5,1.4-8.4,2c-0.3-1.3,1-4-2-3.1c-5.5,1.6-5.5-2.1-5.9-5.6l6.3,0.5
				L169.9,157.7z"/>
			<path class="st1" d="M113.8,89.6c-2-3.4-2.2-7.3-1.9-11.1c0.1-1.6,1.6-3,2.4-4.6c1.2,1,2.5,2,3.7,3c3.3,2.7,2.7,7.1,4.3,10.4
				c3.3,6.8,7.8,13,11.9,19.4c0.9,1.3,1.9,2.6,2.9,3.8c-5.5,1.2-9-1.7-11.9-5.8c-1.9-2.6-3.5-5.5-5.2-8.2L113.8,89.6z"/>
			<path class="st7" d="M188.9,117.6c-7.2,0.8-14.4,1.6-21.6,2.3c-2,0.2-8.4-4.2-9.3-6.4c4,0.5,8,1.2,12.1,1.5
				c0.5,0,1.2-1.5,1.8-2.3c3.2-0.6,6.4-1,9.7-1.2c4.1-0.1,7.9,0.5,12.1-2c2.9-1.7,7.5-1.2,11.2-0.8c1.8,0.2,3.2,2.6,0.1,4.2
				c-1.1-0.2-2.5-0.8-3.4-0.4C197.4,114,193.1,115.8,188.9,117.6z"/>
			<path class="st7" d="M151.1,182.8c2.8-1.4,5-4.9,8.9-2.6c0.2,0.1,0.7-0.2,1.1-0.3c2.6-1.1,2.6-1.1,4.3,1.8
				c1.4-2.1,2.6-4.2,5.8-2.9c1.1,0.5,2.9-0.6,4.4-1c4.5-1.2,9-2.5,13.6-3.7c1.1-0.2,2.2-0.3,3.4-0.2c-0.4,1.3-0.9,2.5-1.5,3.7
				c-0.4,0.6-1.4,0.9-2.1,1.3c-5.2,0.7-10.2,2-14,6c-1.5,3.6-3.8,2-6,1c-1.4-0.7-2.8-1.3-4.2-1.9l-0.4,0.9l3,2.4l-0.3,0.8l-14-1.7
				l3.9,3.5h-6c-0.3,0-0.7,0-1,0C150.4,187.4,150.8,185,151.1,182.8z"/>
			<path class="st6" d="M122,148.5c-4.6-4.2-9.5-8.2-13.7-12.8c-2.2-2.5-2.9-6.3-4.5-9.4c-1.4-2.7-3.2-5.1-4.8-7.6v-3
				c1.7,1.8,3.3,3.6,5,5.4c0.5,0.5,1.1,1,1.6,1.4c0.5-0.5,0.9-1.2,1.2-1.8c0.1-1,0.2-2,0.1-3l3.1-1.1l0.1,0.1
				c-1,4.2,0.6,7.5,3.6,10.4c0.9,1.1,1.7,2.3,2.3,3.6c-0.5,0.6-1.6,1.7-1.5,1.7c3.1,3.2,6.3,6.3,9.5,9.4l2.9,2.1l-0.9,2.9l-3,0.9
				L122,148.5z"/>
			<path class="st3" d="M211.1,91.7c-1-3.6-3.2-1.7-5.1-1c-6,2.2-12,4.4-18.1,6.5c-1.6,0.4-3.2,0.6-4.9,0.6l-1-7.1
				c2.5-0.9,5.1-2.5,7.6-2.6c3.2-0.1,6.5,0.9,8.9-2.2c0.2-0.3,0.9-0.1,1.4-0.2c5.1-2.6,9.9-1.4,15.6,2L211.1,91.7z"/>
			<path class="st8" d="M202.1,18.8c0.1,2.2,0.3,4.4,0.2,6.6c0,0.5-0.9,0.9-1.3,1.4c-0.6,0-1.6-0.1-1.8,0.2
				c-0.9,1.5-1.5,3.1-2.2,4.6c-0.5,0.3-1.6,0.7-1.6,0.9c0.9,3.5-1.2,5.2-3.5,7.1c-0.7,0.6-0.6,2-0.9,3.1h-7l1-2.1
				c-0.6-3-0.7-6.1-1.8-8.9c-1.3-3.3,0.8-5.1,2.5-8.4l6.2,8.5c0.3-2.5,0.6-4.4,0.9-6.3c0.4-2.4-0.4-5.9,4.2-3.6
				C199.6,23.1,200.9,20.5,202.1,18.8z M198.6,23c0,0.1,0,0.3,0.1,0.3c0.1,0.1,0.3,0.1,0.4,0.1l-0.1-0.5L198.6,23z"/>
			<path class="st9" d="M114,211.7l-2,4.9l-8,3c-2.5-1.5-5-3.2-7.3-4.9c-3.4-2.9-6.4-6-9.6-9.1l-4-8c3.4-2,4.8,1.6,5.5,3
				c1.4,2.8,3.1,2.7,5.4,2.4c3.3-1.6,4.2,1.7,5.5,3.1c2.1,2.4,3,5.9,7.3,4.9c0.3-0.1,0.8,0.8,1.2,1.3c1.6,1.8,2.5,1.1,3.4-0.7
				c0.7-1.5,1.7-2.9,2.5-4.4L114,211.7z"/>
			<path class="st0" d="M166.9,133c-2.9,0.8-3.2,2.9-2.8,5.4c0.3,1.4,0.6,2.9,0.9,4.3l1,4l-2,0.9c-1.6,1.3-3.8,1.6-5.7,1
				c-3.1-0.8-6.6-0.3-10,0.1s-5-0.9-5.4-4.1c0.1-0.3,0-0.7-0.3-0.9l-0.6-1.3c-0.2-2.2,0.4-3.7,2.9-3.7l0,0l1.8,0.1l5.8,3.3
				c0.5,0.3,1.2,0.9,1.5,0.7c2.9-1.4,7.5-1.3,6.3-6.4c-1.3-0.8-2.5-1.7-3.6-2.7c-0.2-0.1,0.7-1.4,1.1-2.1l7,0.5l0.9,0.5
				C166.2,132.7,166.6,132.8,166.9,133z"/>
			<path class="st10" d="M87,205.6c3.2,3,6.3,6.2,9.6,9.1c2.4,1.8,4.8,3.4,7.3,4.9l2,3c0,0.3,0,0.6,0,0.9l0.1,1.1
				c0.4,0.9,0.6,2,1.3,2.5c0.9,0.5,1.8,0.9,2.8,1.1l-1.2-2.6l5-1l3,1.1c3.6,1.1,7,3.6,11,1.8l0,0c-0.4,1-0.7,2-1.1,3l-9-1l0,0
				l-2.9-0.1l-2.2,4.2c-1.2,4.5-3.3,0.5-4.9,0.5l-5.4-4c0.3-2.6,2.9-4.5-1.8-7.2c-6.3-3.5-11.1-9.8-16.6-15
				c-0.4-0.4-0.2-1.6-0.2-2.4L87,205.6z"/>
			<path class="st7" d="M119.9,96.7c1.7,2.7,3.3,5.6,5.2,8.2c2.9,4,6.4,7,11.9,5.8c2.2,1.1,4.2,2.3,3.8,5.3c-0.9,0.5-2,1.5-2.6,1.3
				c-3.7-1.5-7.2-3.2-11-4.9c-0.5,2-0.9,3.7-1.4,5.4l-3.2-0.9l0.1,0.1l-0.8-1.2l-6-9.1l-0.7-1.8c-0.2-0.6-0.3-1.1-0.5-1.7
				c0-0.8,0.1-1.6,0.1-2.4l0,0L119.9,96.7z"/>
			<path class="st11" d="M130.8,71.9c-2-2.4-2.1-8.8,0-11.9c0.6-0.7,1.2-1.5,1.8-2.1c2.7,3.8,5.7,6.9,6.7,12.4s5.9,10.6,9,15.8
				c0.9,1.5,1.7,3.1,2.6,4.7l-0.9,1.5c-2.4-2.2-6.5-2.1-7.3-6.4c-0.6-2.9-1.6-5.6-3-8.2c-0.7-1.3-2.5-2.1-3.8-3.1l-2-1L130.8,71.9z"
				/>
			<path class="st0" d="M132.1,165.7l-1.1-3h0.1c2.1-0.2,2.4-1.2,1.3-2.9l1.1-2.1c1.2,1.5,2.3,4.1,3.7,4.3c2.9,0.3,6.6,0.3,8.8-1.3
				c2.9-2.1,5.7-1.9,8.8-2.1l1.3-0.4c0-0.2,0.1-0.4,0.3-0.4c0,0,0,0,0.1,0h4.4c0.5,1.7,1.8,4,1.2,4.9c-2,2.9,0.2,4.7,0.9,6.9
				c-0.4,0.4-0.9,1.2-1.2,1.1c-1.9-0.4-3.7-0.9-4.8,1.4c-0.7-0.1-1.4-0.3-2-0.5c0.2-1.6,0.4-3.1,0.5-4.7c-5.5-0.8-10.8-1.2-15.8-2.6
				C137.1,163.7,134.2,164.1,132.1,165.7z"/>
			<path class="st5" d="M125.9,117.7c0.4-1.7,0.9-3.4,1.4-5.4c3.7,1.7,7.3,3.5,11,4.9c0.6,0.2,1.7-0.8,2.6-1.3
				c0.9-0.1,2.1-0.7,2.6-0.3c1.5,1.5,2.8,3.1,4.1,4.7c0.3-3,0.4-4.8,0.6-6.7l5.4,5.8c-0.7,1.8-1.7,4-2.6,6.2l-5-1
				c-0.9-3.2-2.3-1.6-4.3-0.9c-2.7,0.9-7.2,1.8-8.4,0.5c-1.9-2.2-4.3-3.7-6.3-5.6L125.9,117.7z"/>
			<path class="st12" d="M145.9,124.7l5,1l3.9,3l3.1,3c-0.4,0.7-1.3,2-1.1,2.1c1.2,1,2.4,1.8,3.7,2.6c1.1,5.1-3.4,5-6.3,6.4
				c-0.3,0.1-1-0.4-1.5-0.7l-5.9-3.3l-1.8-0.1l0,0l-2.3-3.1l0.2-1.9L145.9,124.7z"/>
			<path class="st12" d="M132.1,165.7c2.2-1.5,5.1-2,7.7-1.2c5,1.3,10.3,1.7,15.8,2.6c-0.2,1.6-0.4,3.1-0.5,4.7
				c-1-0.1-2.4-0.6-2.8-0.1c-3.3,3.2-9.4,3.6-13.1,1.4c-1.6-1-4.3-0.4-6.7-0.5c-0.2,2-0.3,3.6-0.4,5.2c-0.2-2.2-0.6-4.4-0.6-6.6
				C131.4,169.3,131.6,167.5,132.1,165.7z"/>
			<path class="st13" d="M184.9,40.5l-1,2.1l-0.7,1.9c4.2,1.4,2.5,3.3,0.4,5.3c-1,0.9-1.8,1.9-2.7,2.8l-1.9,3l-1.2,1
				c-3.5-6.4-4.2-13.5-4.7-20.6c-0.1-0.8,1.3-2,2.3-2.4c0.7-0.2,1.9,0.7,2.6,1.3c0.4,0.3,0,1.4,0.4,1.9c1.2,1.5,1.3,5.1,4.8,2.8
				C183.6,39.6,184.4,40.2,184.9,40.5z"/>
			<path class="st8" d="M160.2,52.7c-2.6-6-1.3-11.9,0.2-17.7l1.3-0.2c0.6,1.6,1.6,3.1,1.6,4.7c0.1,6.7,3.1,12.2,6.9,17.4
				c1.4,2.2,2.7,4.4,3.8,6.7c-4,1-8-1.6-9.1-5.9C164.4,55.1,163.9,52.3,160.2,52.7z"/>
			<path class="st6" d="M119.9,173.6c-1.5,2.5,1.2,3.3,1.9,4.9c-2.2-0.3-4.3-0.7-6.4-0.8c-0.5,0-1,1.1-1.4,1.7l-3.3-2.6
				c-1.5-1.2-3-2.4-4.5-3.6c-1.2-0.9-1.1-4.7-4.1-1.9c-0.2,0.2-1.1-0.1-1.3-0.4c-0.9-1.9-1.2-4.9-2.6-5.6c-3.3-1.7-1.4-3.7-1.3-5.7
				v-2c1.5,1.8,3.2,3.4,4.9,4.9c1.4,1,3.3,1.5,5,2.2C108.9,170.4,114.6,174.3,119.9,173.6z"/>
			<path class="st11" d="M160.2,52.7c3.7-0.4,4.1,2.4,4.8,4.9c1.1,4.3,5.1,6.9,9.1,5.9l0,0l0.5,1.1l0.4,1.2l-0.1,1.8l-1.9,2.9
				c-0.9,1.1-1.7,2.2-2.4,3.5c-0.5,1.5-0.8,3.1-1,4.6l-4.6-2.1c0.5-2.5,1.1-4.9,1.7-7.8l-3.5-1.2c0.9-4.6-1.8-8.2-3-12.3
				C160.1,54.5,160.1,53.6,160.2,52.7z"/>
			<path class="st14" d="M84.9,259.1c1.2-0.8,2.8-1.5,2.1,1s-3.6,5.5-5,7.7c-5.2,8.1-9,15.4-14.4,23.4c-1.2,1.8-3,3.1-4.5,4.6
				l-1.6-1.3c2.7-3.6,5.6-7.1,8-11s4.4-8.2,6.9-12.1s5.5-7.9,8.3-11.8C84.7,259.4,84.9,259.3,84.9,259.1z"/>
			<path class="st9" d="M97,157.6v2c-4.2,0.4-4.5-1.7-3.2-4.9c0.1-2.7,0.1-5.4,0-8.1c-0.1-1-1.4-2.7-2.1-2.6c-1.1,0-2.2,1.3-3.3,2
				c-0.7-2-1.8-4.1-1.8-6.1s1.2-4.1,2-6.5c2.5,1.5,4.4,2.4,5.7,5.7c1.5,4,5.6,7.1,8.6,10.6l-6.2-2.1c1.1,1.9,1.7,3,2.3,4.1v3
				C98.3,155.6,97.6,156.6,97,157.6z"/>
			<path class="st15" d="M98.9,151.6c-0.6-1.1-1.2-2.1-2.3-4.1l6.2,2.1c3.2-1,4.4,1.9,6.5,3.2c3.2,1.9,6.4,3.9,9.7,5.8
				c-1.9,0.1-3.5,1.5-3.8,3.4c-0.1,0.4-2.4,0.3-3.7,0.3c-1.4,0.1-2.8,0-4.2-0.3c-0.9-0.3-1.8-1-2.3-1.8c-0.8-1.2-1.5-2.4-2.1-3.6
				C102.4,154.4,102,152,98.9,151.6z"/>
			<path class="st1" d="M155.1,75.7c-3.4-0.8-3.1-4.5-4.9-6.6c-1.2-1.4-0.9-4.2-1.2-6.4c0-2.1,0.1-4.2,0-6.3s1.2-2.8,3.1-2.7l0,0
				c0.2,0.7,0.5,1.3,0.7,2l0.1,1.4l1.1,1.7l2.1,5c-1.1,2.6-1,4.6,1.7,6.5c1.6,1.1,2.2,3.6,3.3,5.4l-1,1.1L155.1,75.7z"/>
			<path class="st10" d="M146.9,99.6c-3.6,2.4-1.2,4.1,0.8,5.4c2.3,1.5,3.5,3.2,2.8,6.3l-4.3-0.6c-2.7-4.7-5.4-9.4-8.1-14.1l0.7-7.9
				c0.7,0.1,1.9,0,2.1,0.3C143.1,92.5,145.1,96.1,146.9,99.6z"/>
			<path class="st7" d="M146.9,99.6c-2-3.5-3.9-7.1-5.9-10.6c-0.2-0.4-1.4-0.2-2.1-0.3c-0.3-1.3-0.7-2.6-1-4
				c-0.7-3.4-1.3-6.8-2-10.1c1.3,1,3,1.8,3.8,3.1c1.4,2.5,2.4,5.3,3,8.2c0.8,4.3,4.9,4.2,7.3,6.4l0.9-1.5l1.5,2l0.1,1.1l0.3,0.3
				l1,0.7l1.2,0.6C152.9,99,149.4,100.9,146.9,99.6z"/>
			<path class="st7" d="M203.9,53.9l-2-0.1l-7-2.1c0.6-3.3,3.4-2.3,5-1.8c3.7,1.3,4.3-0.3,4-3.3c0.7-0.7,1.2-1.8,2-1.9
				c4.2-0.9,8.4-1.1,12,2c-0.1,1.4-4.7,0.3-1.8,3.3c0.1,0.1,0,0.4-0.1,0.5c-2.7,1.1-5.4,2.2-8.1,3.3L203.9,53.9z"/>
			<path class="st4" d="M98.6,177.6l7.4,8.4c2.8,4.8,3.1,9.2-1.6,13.1c-0.3,0.2-0.3,0.9-0.4,1.4h-1c-0.7-1.8-1.4-3.5-2.1-5.3
				l4.3-1.6c-4.4-5-10.1-8.7-10.2-15.8L98.6,177.6z"/>
			<path class="st11" d="M113.8,205.7c-1.7-0.4-2.1-4.6-4.9-1.7l-1.5-4.2l13.7-5.1l-4.1-1.9l1.8-0.4c-1.7-4.3,2.1-3.7,4.2-4.7
				c-0.1,2-0.3,4-0.3,6c0,1,0.1,2,0.1,3l-2.1,6.1c-3.6-2.5-4.4,1-5.9,2.9C114.4,205.6,114.1,205.7,113.8,205.7z"/>
			<path class="st7" d="M191.9,84.4c-0.2,0.1-0.4,0-0.5-0.2v-0.1l-2.5-1.2V83l-0.3-0.8l-0.6,0.7c-2.3,3.3-6.8,4.1-10.1,1.9
				c4.9,0.1,2.3-3.1,2.2-5.2c1.2-1,2.7-3.1,3.7-2.9c5,1.1,3.6-2.8,4.3-5c-0.1-0.1-0.2-0.3-0.1-0.5c0,0,0,0,0.1-0.1
				c1.4,3.5,2.3,0.9,3.3-0.3l2.7,2.8c0,1.3,0,2.7,0,4C193.2,79.9,192.6,82.1,191.9,84.4z"/>
			<path class="st12" d="M127.9,180.7c1.4-0.7,2.4-1.3,3.1,1.1c1,3.4,6.4,5.4,9.6,3.8c0.3-0.2,0.2-1.2,0.3-1.9l1-0.2
				c0.4,1,0.7,2.7,1.1,2.8c3.4,0.4,3.2,3.2,4,5.3c-1.4,0.2-2.8,0.8-4,0.5c-3.5-0.9-5.7,0.4-7,3.6l-2-2.1c-2.7-3.8,0.8-3.8,3.3-4.4
				l-11.5-2.5C126.6,184.7,127.3,182.7,127.9,180.7z"/>
			<path class="st3" d="M145.9,124.7l-3.1,9l-2,0.8l-4-1.8l-0.8-1.9l-1.1-3.1l0.2-0.5l-0.3,0.4l-6-0.9l0,0c-0.8-1.4-1.5-2.9-2.2-4.3
				c-0.6-1.3-3.3-2.8,0.3-3.7c2,2,4.4,3.4,6.3,5.6c1.2,1.3,5.7,0.4,8.4-0.5C143.6,123.1,145.1,121.5,145.9,124.7z"/>
			<path class="st3" d="M160.1,98.7l13.6-0.7l-3.6,8.3c-3.3-1.7-2.7,2.2-4.5,3.2c-2-1.1-3.4-4.9-6.5-1.8l-2-4l0,0
				c0.3-1.3,0.6-2.7,1-4L160.1,98.7z"/>
			<path class="st7" d="M94.9,177.8c0,7.1,5.8,10.8,10.2,15.8l-4.3,1.6l2.1,5.3c-6.1-4.1-6.9-12.1-12-17
				C89.6,178.9,90.8,177.2,94.9,177.8z"/>
			<path class="st4" d="M99,115.7v3c-3.2-3.8-2.6-8.6-3.2-13.1c-0.1-0.7,1.6-2.3,2.4-2.2c3.6,0.3,9.4,7.7,9.3,11.4l-0.6,2
				C104.2,116.1,102.1,111.9,99,115.7z"/>
			<path class="st12" d="M154.8,158.6c-3,0.1-5.8,0-8.8,2.1c-2.2,1.6-5.9,1.6-8.8,1.3c-1.4-0.1-2.4-2.8-3.7-4.3
				c-0.7-0.7-1.4-1.3-2.2-1.9c-1.3-0.8-2.8-1.4-4.2-2.2l8,0.2c2.1,0.8,5.5,2.9,6,2.3c3.3-3.5,5.3,1.7,8.2,0.8
				c1.6-0.4,3.6,0.8,5.4,1.3L154.8,158.6z"/>
			<path class="st6" d="M128.1,131.5l1,1.1l1,1.4c-0.4,1.4-0.7,2.8-1,4.2c0,0.4,0.5,1.1,1,1.3c2.9,1.6,5.9,3.1,5.9,7.1l-9-4l-3-1
				c1.1-3.9-2.7-5.4-4-8.1l3.1-4.2l3.8,1.4L128.1,131.5z"/>
			<path class="st1" d="M94.9,177.8c-4.1-0.5-5.3,1.1-3.9,5.7c-1.3-1.5-3-2.8-4-4.5c-1.8-3-3.1-6.3-4.7-9.4l0.3-3.1l-0.1-0.1
				c2.7,1.5,4.8,4.6,8.5,3.2l0.9,0.9l1.3,1l5.2,6.1L94.9,177.8z"/>
			<path class="st11" d="M93.9,203c-2.3,0.3-4,0.3-5.4-2.4c-0.7-1.3-2.1-4.9-5.5-3l-3.7-8.8c0.2-1.9,0.3-3.8,0.5-5.6l1.2-0.4
				c1.9,3.1,3.8,6.4,5.8,9.4c1.4,2.1,3.2,3.9,4.6,6C92.4,199.7,93.2,201.3,93.9,203z"/>
			<path class="st7" d="M116.9,192.8l4.1,1.9l-13.7,5.1l-3.4,0.6c0.1-0.5,0.1-1.1,0.4-1.4c4.7-3.9,4.5-8.3,1.6-13.1L116.9,192.8z"/>
			<path class="st10" d="M156.9,189.6l-3.9-3.5l14,1.7l0.3-0.8l-3-2.4l0.4-0.9c1.4,0.6,2.8,1.3,4.2,1.9c2.2,1,4.5,2.6,6-1
				c0.4,1.4,0.7,2.8,1.1,4.1l-10.7,3.8l-1.3,0.9l-3-0.8c0.1-0.1,0.2-0.3,0.2-0.4c0-0.2-0.1-0.3-0.2-0.4L156.9,189.6z"/>
			<path class="st4" d="M129.8,229.6c0.5-0.3,1.1-1,1.6-1c5.8,0.3,11.5,0.7,17.3,1.2c1,0.2,2,0.6,3,1c-0.7,0.8-1.2,1.9-2.1,2.2
				c-2.8,1.2-5.7,2.2-8.6,3.4v-1.7c0.1-0.1,0.2-0.3,0.2-0.4s-0.1-0.4-0.2-0.4c-4.3-1.1-8.7-2.1-13-3.2
				C128.6,230.3,129.1,230,129.8,229.6z"/>
			<path class="st8" d="M219.1,9.9c-1.6,1.2-0.2,4.9-3.7,4.6c-0.1,0.4-0.2,0.9-0.2,1.3c0.7,5.3,0.6,5.3-5.2,5.8l-1.1-0.1
				c0-0.8,0-1.6-0.2-2.5c-2.5-5.7-1.9-6.7,4-7.6C214.9,11.2,216.9,10.6,219.1,9.9z"/>
			<path class="st7" d="M202.9,71.8c4.5-0.7,9-1.4,13.6-1.9c0.8-0.1,1.6,0.7,2.4,1c-0.4,0.7-0.6,1.5-1.2,1.9c-2.2,1.4-4.5,2.7-6.7,4
				c-2.4,0.2-4.8,0.4-7.2,0.5c-2.9,0.2-5.9,0.3-8.8,0.4l11.1-2.6L202.9,71.8z"/>
			<path class="st11" d="M123,129.3l-3.1,4.2l-1.9-0.9l-1.9-2v-0.1c-0.6-1.3-1.4-2.5-2.3-3.5c-3-2.9-4.6-6.2-3.6-10.4
				c1.3,1.2,2.6,2.4,3.9,3.6C117,123.2,120,126.3,123,129.3z"/>
			<path class="st0" d="M126.9,142.6l9,4l1.7,0.1l0.4,0.9l-2.8,6.1l-8-0.2H127l-2.2-1.8h0.1c0-0.7,0-1.4,0.1-2.1l1-3l0.9-2.9
				L126.9,142.6z"/>
			<path class="st7" d="M188.9,142.5l-4-3.3c1.8-0.9,3.8-1.6,5.7-2.2c4.1-0.9,8.3-1.5,12.4-2.2C199.9,140.3,194.9,142.2,188.9,142.5
				z"/>
			<path class="st0" d="M125.9,186.7l11.3,2.5c-2.5,0.6-6,0.6-3.3,4.4l-7.9,2.1c-2.3-4.2-2,1.7-3.4,0.9c0-1-0.2-2-0.1-3
				c0.1-2,0.2-4,0.3-6l0.1,0.1L125.9,186.7z"/>
			<path class="st3" d="M157.9,126.6c0.4-0.6,0.8-1.7,1.1-1.7c6.5,0.2,12.9,0.7,19.4,0.6c2.1-0.1,4-2.2,6.1-3
				c1.7-0.5,3.5-0.7,5.3-0.8c-8.1,6.2-17.5,7-27.1,6.8C161.2,128.5,159.6,127.2,157.9,126.6z"/>
			<path class="st3" d="M166.1,146.7l-1-4c3.2-0.6,6.4-1.1,9.6-1.7c4.8-0.9,5.6-0.1,4.3,4.5l-1.1,0.2
				C174.1,148,170.1,148,166.1,146.7z"/>
			<path class="st2" d="M135.9,195.7c1.4-3.1,3.5-4.5,7-3.6c1.2,0.3,2.7-0.3,4-0.5l2.9-2c0.3,0,0.6,0,1,0l-1,6.1l-6,2.9
				c-1.3-0.5-2.5-1.1-3.8-1.5S137.4,196.2,135.9,195.7z"/>
			<path class="st13" d="M152.1,53.6c-1.9,0-3.2,0.5-3.1,2.7s0,4.2,0,6.3c-3.3-4.6-2.7-9.9-2.7-15c0.2-1.7,0.5-3.4,1.1-5
				c1.2,1.5,2.8,2.9,3.6,4.7C151.6,49.3,151.6,51.5,152.1,53.6z"/>
			<path class="st10" d="M188.9,117.6c4.2-1.8,8.4-3.6,12.7-5.2c0.9-0.3,2.3,0.3,3.4,0.4c-2.6,4.9-6.4,7.7-12.2,6.8L188.9,117.6z"/>
			<path class="st7" d="M140.9,234.7v1.7c-2.5,0.7-4.9,1.9-7.4,2.1c-3.2,0.2-6.4-0.5-9.6-0.8c0-1.7,0-3.4,0-5L140.9,234.7z"/>
			<path class="st10" d="M194.9,77.7c2.9-0.2,5.9-0.3,8.8-0.4c2.4-0.1,4.8-0.3,7.2-0.5l-8.1,4.8l-11.1,2.8l2.2-6.7L194.9,77.7z"/>
			<path class="st10" d="M135.9,195.7c1.4,0.5,2.8,1,4.2,1.5s2.5,1,3.8,1.5c-3.9,2.8-7.6,2.1-9.2-0.9c-2.5,0.5-5.1,0.8-7.7,1
				c-0.3,0-0.8-2-1.1-3.1l7.9-2.1L135.9,195.7z"/>
			<path class="st8" d="M161.1,75.6c-1.1-1.9-1.7-4.3-3.3-5.4c-2.7-1.9-2.8-3.9-1.7-6.5c1.4,1.5,2.9,2.8,4.5,4.1
				c0.6,0.4,2,3.4,2.7-0.1l3.5,1.2c-0.6,2.9-1.2,5.3-1.7,7.8L161.1,75.6z"/>
			<path class="st7" d="M79.3,188.8l3.7,8.8l4,8l-3.2,0.1c-1.4-0.8-5.2-6.7-5.1-8.1C78.8,194.7,79.1,191.8,79.3,188.8z"/>
			<path class="st10" d="M187.9,71.7c-0.7,2.2,0.8,6.1-4.3,5c-1-0.2-2.5,1.9-3.7,2.9l-2-1l-0.4-1.3l-0.4,0.3l0.8,1.1l-2.1,1
				c-3-1.7-2.8-4.2-1.9-7h1.1l4.8,1.2l0,0l1.1-0.2L187.9,71.7z"/>
			<path class="st10" d="M137.6,146.8l-1.7-0.1c0-4-3.1-5.4-5.9-7.1c-0.4-0.3-1-0.9-1-1.3c0.3-1.4,0.6-2.8,1-4.2l1.9-0.3
				c0.1,0.3,0.2,0.6,0.4,0.8c-0.7,2.9,1.3,1.9,2.7,1.8l5,2.2L137.6,146.8z"/>
			<path class="st10" d="M162.9,169.6c-0.8-2.2-3-4-0.9-6.9c0.6-0.9-0.7-3.2-1.2-4.9l0.9-1.5l-0.1,0.1l0.9-1.2l0.2-0.2l1.2,4.6
				c0.4,3.5,0.5,7.2,5.9,5.6c3-0.9,1.7,1.8,2,3.1c-2.4,1.2-4.7,2.7-7.4,0.5C164.4,168.7,163.4,169.4,162.9,169.6z"/>
			<path class="st2" d="M124,232.6c0,1.7,0,3.4,0,5c-2.2-0.6-4.9-2.3-6.6-1.6c-3.1,1.2-3.2-1.2-4.5-2.3l2.2-4.2l2.9,0.1l0,0
				L124,232.6z"/>
			<path class="st13" d="M91.1,169.6c-3.8,1.4-5.9-1.7-8.5-3.2c-1.4-3.1-2.6-6.1,0.1-10.2L91.1,169.6z"/>
			<path class="st10" d="M155.1,75.7l4.9,1l6.3,8.2l-1.4,1.8l-4,1.3l-3.8-5.3L155.1,75.7z"/>
			<path class="st5" d="M150.1,189.6l-2.9,2c-0.8-2.1-0.6-4.9-4-5.3c-0.5-0.1-0.8-1.8-1.1-2.8c2.8-3.1,6.1-0.8,9.2-0.8
				C150.8,185,150.4,187.3,150.1,189.6z"/>
			<path class="st9" d="M137.9,84.7c0.3,1.3,0.6,2.6,1,4l-0.7,7.9c-2.2-3.3-4.7-6.4-6.3-9.9c-0.9-1.9-0.1-4.6,0-7l1.1-0.1l0,0v2l1,1
				l0,0c-0.3,2-1.9,4.3,1.1,5.7l1.9-3.6C137.4,84.7,137.6,84.7,137.9,84.7z"/>
			<path class="st6" d="M113.8,205.7c0.3,0,0.6-0.1,0.9-0.1c0.4,1.2,0.9,2.4,1.6,3.4c0.6,0.7,2.2,1.6,2.6,1.3c1.8-1.4,3.4-2.9,5-4.6
				l1.9,0.4c0.2,0.7,0.2,1.7,0.7,2.2c0.7,0.5,1.5,0.9,2.3,1.2c-0.7,0.5-1.4,1-2.1,1.6c-0.7,0.8-1.3,1.6-1.9,2.5l-10.9-1.9l-0.3-4.5
				L113.8,205.7z"/>
			<path class="st9" d="M175.9,209.6c-0.2-0.2-0.4-0.6-0.7-0.7c-2.8-1-6.9-3.5-8.1-5.2c3.6-0.7,7.3-1.6,10.3,1.3
				c0.8,1,1.1,2.2,1,3.4C178.4,208.8,176.8,209.2,175.9,209.6z"/>
			<path class="st14" d="M102.5,230.3l5.4,4c-3.1-0.8-5.1,0.1-6.4,3.3c-1.4,3.1-3,6.1-4.8,9l-1.2-2.4L102.5,230.3z"/>
			<path class="st1" d="M176.1,188.8c-0.4-1.4-0.7-2.8-1.1-4.1c3.8-3.9,8.8-5.3,14-6c-0.7,1-1.4,2.8-2.1,2.9c-2.8,0.1-4,1.6-4.9,4
				c-0.3,0.8-2,0.9-3,1.5S177.1,188.2,176.1,188.8z"/>
			<path class="st4" d="M157.1,82.7l3.8,5.3l4-1.3v5l-4.9,5c0.2-2.1-0.5-3.3-2.9-3l1.3-4.7C154.1,88,157.1,85,157.1,82.7z"/>
			<path class="st13" d="M171.9,112.7c-0.6,0.8-1.2,2.4-1.8,2.3c-4-0.3-8-1-12.1-1.5v-1.8l0.8-1C163.4,111,168.1,109.6,171.9,112.7z
				"/>
			<path class="st8" d="M95.6,244.2l1.2,2.4c-2.5,4.5-8.2,11.7-9.7,12.9c0.1-2.1-2.5,0.1-2.2-0.4C88.2,253.9,91.7,248.9,95.6,244.2z
				"/>
			<path class="st2" d="M123.9,205.8c-1.6,1.6-3.2,3.2-5,4.6c-0.4,0.3-2.1-0.6-2.6-1.3c-0.7-1.1-1.2-2.2-1.6-3.4
				c1.5-1.8,2.3-5.4,5.9-2.9L123.9,205.8z"/>
			<path class="st15" d="M88.4,146c1.1-0.7,2.2-1.9,3.3-2c0.7,0,2,1.6,2.1,2.6c0.1,2.7,0.1,5.4,0,8.1c-3.2-1.4-6.4-2.8-3.8-7.3
				l-1.4-1.5L88.4,146z"/>
			<path class="st5" d="M149.9,195.8l1-6.1h6l4.1,2.1c0.1,0.1,0.2,0.2,0.2,0.4c0,0.1-0.1,0.3-0.2,0.4c-2.4,0.9-4.7,2-7.1,2.7
				C152.6,195.6,151.4,195.8,149.9,195.8z"/>
			<path class="st5" d="M194.9,77.7h-1c0-1.3,0-2.7,0-4l9-1.8l3.1,3.3L194.9,77.7z"/>
			<path class="st9" d="M119.9,96.7l-5.1,3.9c-0.5-2.7-1.1-5.4-1.5-8.1c0-1,0.2-2,0.5-2.9L119.9,96.7z"/>
			<path class="st10" d="M132.9,79.6l-1.1,0.1c-0.3-1-0.5-2-0.8-3l2.9-3l2,1c0.7,3.4,1.3,6.8,2,10.1c-0.3,0-0.7-0.1-1-0.1l-3-2l0,0
				c0-0.3,0-0.7,0-1c0.1,0,0.2-0.1,0.4-0.2c0.1,0,0-0.2,0.1-0.3l-0.4,0.4c-0.3,0-0.6,0-0.9,0v-2c0.2-0.4,0.5-0.7,0.7-1.1
				c-0.1-0.1-0.2-0.2-0.4-0.2L132.9,79.6z"/>
			<path class="st4" d="M137.6,146.8c0.8-2.7,1.6-5.4,2.3-8.1l2-3l0.4-0.1h0.4l2.3,3.1c-2.5,0-3.1,1.6-2.9,3.7l-4.1,5.3L137.6,146.8
				z"/>
			<path class="st3" d="M164.1,159.7l-1.2-4.6c1.8-0.3,3.6,2.5,5.3-0.1l1.9,2.7l0.4,2.4L164.1,159.7z"/>
			<path class="st11" d="M214.9,35.1l3.1-1.8c1.5,1.5,0.8,5.3-1.2,6.3c-0.6,0.3-1.2,0.7-1.9,1l-2-0.1
				C213.6,38.7,214.2,36.9,214.9,35.1z"/>
			<path class="st6" d="M166.1,146.7c4.1,1.3,8,1.3,11.8-1c-0.7,1-1.4,2.8-2.1,2.8c-3.9-0.1-8,2-11.7-0.8L166.1,146.7z"/>
			<path class="st4" d="M135.1,127.7l1.1,3.1c-0.1,0.3-0.1,0.6-0.2,0.9c-2.8-1.1-6.2-1.1-7-5L135.1,127.7L135.1,127.7z"/>
			<path class="st4" d="M126.9,118.7c-3.6,0.9-1,2.4-0.3,3.7c0.7,1.4,1.5,2.9,2.2,4.3c-1.6-2-3.3-3.9-4.7-6c-0.6-1.3-1.1-2.6-1.4-4
				l3.2,0.9L126.9,118.7z"/>
			<path class="st2" d="M114,179.4c0.5-0.6,1-1.7,1.4-1.7c2.2,0.1,4.3,0.5,6.4,0.8l1.1,3L114,179.4z"/>
			<path class="st2" d="M125.9,186.7l-3,1l0.9-3.9l4.1-3.1C127.3,182.7,126.6,184.7,125.9,186.7z"/>
			<path class="st9" d="M127.9,227.6c-4.1,1.8-7.4-0.7-11-1.8L127.9,227.6z"/>
			<path class="st7" d="M133.9,73.6l-2.9,3c-0.1-1.6-0.2-3.2-0.3-4.8L133.9,73.6z"/>
			<path class="st13" d="M208.9,21.6l1.1,0.1c-0.3,0.6-0.5,1.3-1,1.7c-0.7,0.4-1.5,0.8-2.3,1c0.1-0.9,0.2-1.7,0.2-2.6L208.9,21.6z"
				/>
			<path class="st5" d="M125.9,146.7l-1,3c-0.3,0-0.6,0-0.8-0.1l-1.2-0.9v-1.1L125.9,146.7z"/>
			<path class="st7" d="M158.9,110.7l-0.8,1l-2-1.9l1.8-1L158.9,110.7z"/>
			<path class="st9" d="M129.8,229.6c-0.6,0.4-1.1,0.8-1.6,1.1l-1.2-0.1c0.4-1,0.7-2,1.1-3L129.8,229.6z"/>
			<path class="st3" d="M161.8,156.4l-0.9,1.5h-4.4L161.8,156.4z"/>
			<path class="st11" d="M106.8,116.7l0.6-2l2.5,1.8l-3,1.1C106.9,117.3,106.9,117,106.8,116.7z"/>
			<path class="st9" d="M177.9,56.7l1.2-1l1.4,1.3l-2.5,0.7L177.9,56.7z"/>
			<path class="st12" d="M132.3,159.7c1.1,1.7,0.8,2.7-1.3,2.9L132.3,159.7z"/>
			<path class="st16" d="M203.9,53.9l4-0.2L203.9,53.9z"/>
			<path class="st13" d="M82.7,166.5l-0.3,3.1L82.7,166.5z"/>
			<path class="st12" d="M124.8,151.8l2.2,1.8L124.8,151.8z"/>
			<path class="st13" d="M218.9,29.4v-2.6V29.4z"/>
			<path class="st3" d="M209.9,94.6c0.4-1,0.7-1.9,1.1-2.8C210.6,92.7,210.4,93.6,209.9,94.6z"/>
			<path class="st13" d="M216.9,30.5l1.8-1L216.9,30.5z"/>
			<path class="st13" d="M205.8,19.7l-1.7-1.2L205.8,19.7z"/>
			<path class="st8" d="M204.1,18.5l-2,0.3L204.1,18.5z"/>
			<path class="st9" d="M114.9,100.6c0,0.8-0.1,1.6-0.1,2.4C114.8,102.2,114.8,101.4,114.9,100.6z"/>
			<path class="st9" d="M115.3,104.7l0.7,1.8L115.3,104.7z"/>
			<path class="st16" d="M184.9,67.6l2.1-0.8L184.9,67.6z"/>
			<path class="st9" d="M88.6,145.9l1.4,1.5L88.6,145.9z"/>
			<path class="st12" d="M122.9,147.6v1.1l-0.9-0.2L122.9,147.6z"/>
			<path class="st13" d="M152.8,55.7l-0.7-2L152.8,55.7z"/>
			<path class="st13" d="M153.9,58.7l-1.1-1.7L153.9,58.7z"/>
			<path class="st12" d="M124.1,149.6c0.3,0,0.6,0.1,0.8,0.1c0,0.7-0.1,1.4-0.1,2.1C124.6,151.1,124.3,150.4,124.1,149.6z"/>
			<path class="st11" d="M152.6,93.8l-0.1-1.1L152.6,93.8z"/>
			<path class="st11" d="M153.9,94.7l-1-0.7L153.9,94.7z"/>
			<path class="st13" d="M93.3,171.5l-1.3-1L93.3,171.5z"/>
			<path class="st3" d="M154.8,158.6l0.2-0.4h1.1L154.8,158.6z"/>
			<path class="st5" d="M147.1,112.6c0.3,0.1,0.6,0.2,0.8,0.4L147.1,112.6z"/>
			<path class="st4" d="M122,115.7l0.8,1.2L122,115.7z"/>
			<path class="st16" d="M180.9,73.7l-1.1,0.2L180.9,73.7z"/>
			<path class="st8" d="M220.1,8.9l-0.6,0.9L220.1,8.9z"/>
			<path class="st9" d="M165.9,204.9l-0.7,0.8L165.9,204.9z"/>
			<path class="st16" d="M128.1,131.5l-1.2-0.8L128.1,131.5z"/>
			<path class="st3" d="M162.6,155.3l-0.9,1.2L162.6,155.3z"/>
			<path class="st6" d="M165.9,132.6l-0.9-0.5L165.9,132.6z"/>
			<path class="st5" d="M164.1,193.4l1.3-0.9L164.1,193.4z"/>
			<path class="st8" d="M174.4,64.6l-0.5-1.1L174.4,64.6z"/>
			<path class="st4" d="M142.8,143.7c0.3,0.2,0.4,0.5,0.3,0.9c-0.2-0.2-0.3-0.3-0.4-0.5C142.6,144,142.6,143.8,142.8,143.7z"/>
			<path class="st4" d="M160.1,98.7l-2.1,1l2-3L160.1,98.7z"/>
			<path class="st3" d="M156.9,103.7l-0.4,0.4c0-0.1,0-0.2,0.1-0.3C156.8,103.8,156.9,103.7,156.9,103.7L156.9,103.7z"/>
			<path class="st6" d="M214.9,35.1c-0.6,1.8-1.3,3.6-1.9,5.4c-0.3,0.1-0.6,0.1-0.9,0.2l-2.3,0.3l0.6,0.7l-8.4-0.1L197,31.5
				c0.7-1.5,1.4-3.1,2.2-4.6c0.2-0.3,1.2-0.1,1.8-0.2l1.1,2.8l3,1c0,1,0,2-0.1,3l0.9,2.1L214.9,35.1z"/>
			<path class="st13" d="M213.1,30.9l-2.1,0.4L213.1,30.9z"/>
			<path class="st13" d="M205.9,35.7l-0.9-2.1l1.1,0.1C205.9,34.4,205.9,35,205.9,35.7z"/>
			<path class="st13" d="M204.9,30.6l-3-1L204.9,30.6z"/>
			<path class="st13" d="M206.9,32.6l-0.9,1.1L206.9,32.6z"/>
			<path class="st3" d="M180.6,93.9l-0.8,0.4l-0.4-1c0.3-0.1,0.6-0.3,0.8-0.2C180.4,93.3,180.6,93.6,180.6,93.9z"/>
			<path class="st6" d="M105.9,222.6l-2-3l8-3l-3,6H105.9z"/>
			<path class="st0" d="M105.9,222.6h3v3l1.2,2.6c-1-0.2-2-0.6-2.8-1.1c-0.7-0.6-0.9-1.7-1.3-2.5l-0.1-1.1
				C106,223.3,106,223,105.9,222.6z"/>
			<path class="st9" d="M194.9,51.7l-5.9,3.9l-4.5,3l-3.5-6c0.9-0.9,1.8-1.9,2.7-2.8c2.1-2,3.8-3.8-0.4-5.3l0.7-1.9h7
				c2.2,4.7,3.3,5,6.9,2c0.6,0.5,1.2,1.4,1.9,1.6c1.4,0.2,2.8,0.3,4.2,0.3c0.3,3.1-0.3,4.7-4,3.3C198.4,49.4,195.6,48.4,194.9,51.7z
				"/>
			<path class="st1" d="M178.1,69.5l-2.9,3.2h-1.1l-1-2.1l1.9-2.9C176.4,67.6,178.4,66.4,178.1,69.5z"/>
			<path class="st12" d="M119.9,173.6c-5.3,0.7-11-3.2-13.1-8.9c5.7,2.3,11.7,2.9,17.8,3.1c3.3,0.1,3.8,3.4,3.5,5.5
				c-0.4,3-2.9,1.5-4.8,1.1L119.9,173.6z"/>
			<path class="st6" d="M98.9,151.6c3,0.3,3.4,2.7,4,5l-4-2V151.6z"/>
			<path class="st5" d="M118,132.6l1.9,0.9c1.3,2.7,5.1,4.2,4,8.1c-3.2-3.1-6.4-6.2-9.5-9.4c0,0,1-1.1,1.5-1.7v0.1L118,132.6z"/>
			<path class="st10" d="M106.8,116.7c0.1,0.3,0.1,0.6,0.1,0.9c0.1,1,0.1,2-0.1,3c-0.3,0.7-0.7,1.3-1.2,1.8
				c-0.5-0.5-1.1-0.9-1.6-1.4c-1.7-1.8-3.4-3.6-5-5.4C102.1,111.9,104.2,116.1,106.8,116.7z"/>
			<path class="st5" d="M126.9,142.6l-0.1,1.1l-2.9-2.1L126.9,142.6z"/>
			<path class="st11" d="M197.9,44.7c-3.6,3-4.7,2.6-6.9-2c0.3-1.1,0.2-2.5,0.9-3.1c2.3-1.9,4.4-3.6,3.5-7.1c0-0.1,1-0.6,1.6-0.9
				l5.1,10.1L197.9,44.7z M194.8,40.6c-0.1-0.1-0.1-0.3-0.2-0.3s-0.2,0.1-0.3,0.2l0.4,0.5L194.8,40.6z"/>
			<path class="st13" d="M198.6,23l0.4-0.1l0.1,0.5c-0.1,0-0.3,0-0.4-0.1C198.6,23.3,198.6,23.2,198.6,23z"/>
			<path class="st4" d="M144.9,138.6l1.8,0.1L144.9,138.6z"/>
			<path class="st1" d="M126.9,230.6l1.2,0.1c4.3,1.1,8.7,2.1,13,3.2c0.1,0,0.2,0.3,0.2,0.4s-0.2,0.3-0.2,0.4l-16.9-2.1l-6.1-3
				L126.9,230.6z"/>
			<path class="st1" d="M117.9,229.7l-2.9-0.1L117.9,229.7z"/>
			<path class="st6" d="M106,223.6l0.1,1.1L106,223.6z"/>
			<path class="st7" d="M172.9,70.6l1,2.1c-0.9,2.8-1,5.3,1.9,7c0.5,1.7-2.9,4.3,1.2,5.1c1,3.8-3,2.9-4.4,4.4
				c-0.9-0.6-1.8-1.2-2.6-1.9c-1.3-0.8-2.5-1.7-3.8-2.5l-6.3-8.2l1-1.1l3.9,1l4.6,2.1c0.2-1.6,0.5-3.1,1-4.6
				C171.2,72.8,172.1,71.6,172.9,70.6z"/>
			<path class="st0" d="M177.1,84.8c-4.2-0.8-0.8-3.4-1.2-5.1l2.1-1l0,0l2,1c0,2.1,2.6,5.2-2.2,5.2h-0.3L177.1,84.8z"/>
			<path class="st10" d="M188.8,82.9l2.5,1.2L188.8,82.9z"/>
			<path class="st10" d="M187.9,82.9l0.5-0.7l0.3,0.8h-0.4L187.9,82.9z"/>
			<path class="st4" d="M134.9,127.6l0.3-0.4L134.9,127.6L134.9,127.6z"/>
			<path class="st6" d="M118,132.6l-1.9-2L118,132.6z"/>
			<path class="st11" d="M210.4,41.8l-0.6-0.7l2.3-0.3L210.4,41.8z"/>
			<path class="st0" d="M177.9,78.7l-0.8-1.1l0.4-0.3L177.9,78.7L177.9,78.7z"/>
			<path class="st7" d="M134.1,82.7l3,2l-1.9,3.7C132.1,87,133.8,84.7,134.1,82.7z"/>
			<path class="st7" d="M133.9,81.7c0,0.3,0,0.6,0,1l-1-1C133.2,81.7,133.6,81.7,133.9,81.7L133.9,81.7z"/>
			<path class="st7" d="M132.9,79.6l0.4-1.3c0.1,0.1,0.2,0.2,0.4,0.2C133.6,78.9,133.2,79.3,132.9,79.6L132.9,79.6z"/>
			<path class="st7" d="M133.9,81.7l0.4-0.4c0,0.1,0,0.2-0.1,0.3C134.2,81.6,134.1,81.6,133.9,81.7L133.9,81.7z"/>
			<path class="st8" d="M194.8,40.6l-0.2,0.4l-0.4-0.5c0.1-0.1,0.2-0.2,0.3-0.2S194.6,40.5,194.8,40.6z"/>
		</g>
	</g>
</g>
</svg>
